<?xml version="1.0" encoding="UTF-8"?>
<!-- Generator: Adobe Illustrator 16.0.3, SVG Export Plug-In . SVG Version: 6.00 Build 0)  -->
<!DOCTYPE svg PUBLIC "-//W3C//DTD SVG 1.1//EN" "http://www.w3.org/Graphics/SVG/1.1/DTD/svg11.dtd">
<svg version="1.1" id="Calque_1" xmlns="http://www.w3.org/2000/svg" xmlns:xlink="http://www.w3.org/1999/xlink" x="0px" y="0px" width="5385.83px" height="449.884px" viewBox="0 0 5385.83 449.884" enable-background="new 0 0 5385.83 449.884" xml:space="preserve">
<path fill="none" stroke="#E30613" stroke-width="2" stroke-linecap="round" stroke-linejoin="round" stroke-miterlimit="10" d="  M603.695,206.083l144.571-72.337l30.403-180.932 M1800.645-4087.389l-146.461-226.026l-63.748,319.49 M910.338-3934.342  l-122.913-189.482l-55.25,175.919L910.338-3934.342z M-20.274,335.077l149.472-184.49L-131.352-47.171l183.345-127.07   M-187.115-205.86l55.764,158.689l-216.999,197.758l143.383,153.047 M-348.35-4087.389l143.383,153.047 M-245.681-3691.845  l40.714-242.497l292.322,214.243l-104.72-256.622l146.563-110.668 M606.748-4087.389l-165.101,53.044 M393.443-3762.478  l48.204-271.867l-312.449-53.044 M559.791-216.704L455.447-101.208L218.341-372.097l26.248,385.791L129.197,150.587l312.449,53.058  l162.048,2.438L455.447-101.208 M441.646,203.645l13.801-304.853L244.589,13.694L441.646,203.645z M-204.968,303.634l174.194,76.44  L-131.352-47.171L-204.968,303.634z M-204.967-3934.342l187.603-42.379l-113.987-308.427L-204.967-3934.342z M606.748-4087.389  l5.565,579.218l-23.418,268.446l-143.246,207.346L234.5-2780.321l-38.047,360.434l13.132,267.84 M-348.351,150.587h-238.44h-239.107   M-348.35-4087.389h-238.782 M-740.21-3410.928l29.121-509.287l123.957-167.174h-238.766l114.809,167.174 M60.748-2194.427  l135.705-225.46 M375.6-2448.705l-179.147,28.818l-126.95-127.704 M-402.933-1219.664l157.251,70.604 M-52.728-1346.831  l-192.954,197.771v254.279 M111.347-1062.838l177.224-134.147 M445.975-1106.68l-157.404-90.306l43.587-276.985 M778.669-711.135  l166.006-310.22 M1128.875-1050.173l-184.2,28.818l-87.209-198.337 M1089.947-2662.824l-285.876,112.833 M481.508-3324.72  l107.387,84.995l242.306,56.438l192.613-41.773 M1102.166-3607.085l-78.353,382.024l129.326,260.97 M1657.244-598.094  l-3.061,522.655l-218.879-98.886 M1680.449-2957.263l56.61,294.424l-39.792,386.95 M1654.184-3762.478l25.043,354.103   M1654.184-3762.478l102.659,127.139l-77.616,226.964 M1680.449-2957.263l-1.222-451.112l-147.615,27.315 M1575.387-965.413  l94.108-324.897l-120.374-155.406l187.938-117.372l-143.82-165.16l163.604-165.133l-128.584-103.272l69.008-279.234l-86.859-186.943  l126.651-200.007 M1800.645-1005.229l-143.4,407.135l-90.271-197.801 M1505.346-456.856l105.745,44.146 M1654.183-75.438  l-43.092-337.272l46.153-185.383l143.4,748.681 M1886.331-3410.928l-85.687-676.461 M1868.274-2460.238l-131.215-202.601   M1697.267-2275.889l59.576,382.507 M1800.635-1005.229l-131.14-285.082l67.563-272.778 M1657.244-598.094l188.09,522.655   M1983.625-50.403l-182.981,200.99 M1941.223-1619.292l-36.799,470.232 M1737.059-1563.089l108.268,96.183l95.896-152.386   M1904.424-1149.06l-103.789,143.831l32.439,230.523 M1892.171-456.856l238.447,278.959 M1941.223-1619.292l-87.758-437.137   M1737.059-2662.839l63.586-268.735 M1833.919-3090.059l-33.275,158.484l67.629,471.336 M1886.331-3410.928l-129.488-224.411  l43.802-452.05 M1756.843-1893.382l96.622-163.047 M-825.898,150.587l-143.399-748.681 M-825.897-4087.389h238.766   M-587.132-4087.389l-153.078,676.461l-85.688-676.461 M-507.994-2505.211l-250.273,44.973l-131.216-202.601 M-929.274-2275.889  l59.575,382.507 M-825.897-1005.229l-131.139-285.082l67.553-272.779 M-969.298-598.094l188.09,522.655 M-762.253,9.321  l157.61-508.558L-781.208-75.439l-44.69,226.026 M-793.468-774.706l180.412-317.848l-72.265-526.739l-36.798,470.233   M-889.483-1563.09l108.268,96.183l95.896-152.385l264.193,60.563l-191.929,466.177l-109.063-56.506l-103.779,143.831l32.43,230.523  l188.825,275.469l-129.728,42.38l-46.837,381.418l18.955,84.76 M-613.397-1827.135l-71.923,207.843l-87.756-437.137  L-613.397-1827.135z M-889.483-2662.839l63.586-268.736 M-622.152-3169.161l-170.469,79.103l-33.276,158.484l67.63,471.336   M-630.908-3522.326l-109.302,111.398l-129.489-224.411l43.802-452.05 M-869.699-1893.382l96.623-163.048l159.679-222.757  l-144.87-181.052l232.422-299.252 M-781.216-1466.907l-175.82,176.596l234.918,141.251L-781.216-1466.907z M-740.21-3410.928  l-52.411,320.87L-740.21-3410.928z M-889.483-1563.09l204.163-56.203l-184.379-274.089L-889.483-1563.09z M-929.274-2275.889  l156.198,219.459l14.809-403.809L-929.274-2275.889z M-793.468-774.706l-175.83,176.611l234.927,141.237L-793.468-774.706z   M1886.331-3410.928l-207.104,2.553l154.693,318.316L1886.331-3410.928z M1737.059-1563.089l204.164-56.203l-184.38-274.09  L1737.059-1563.089z M1697.267-2275.889l156.198,219.459l14.809-403.809L1697.267-2275.889z M1833.074-774.705l-175.83,176.611  l234.927,141.237L1833.074-774.705z M1845.335-1466.906l-175.831,176.596l234.927,141.251L1845.335-1466.906z M1800.635,150.587  L1654.183-75.438 M1225.182-456.856h280.164l151.898-141.237 M1593.238-1728.249l-70.04-508.558 M1628.259-1996.654l-17.851-466.178  l70.041-494.431 M1531.611-3381.06l122.572-381.418l146.452-324.911 M1084.312-4087.389l-148.05,282.531l-8.755,310.813   M612.313-3508.171l122.58-254.307l-128.146-324.912l-213.305,324.912l-264.245-324.912l-41.843,367.291 M831.201-3183.287  l-385.551,150.908 M481.508-3324.72l-88.065-437.758 M87.355-3720.099l201.206,302.37 M-245.681-3691.845l201.368,508.558   M-341.988-2618.225l105.062,466.177 M-825.897-2931.575l203.745-237.586 M-421.127-1558.73l114.16-466.178l-201.027-480.304   M-472.631-867.081l106.429,410.224l-238.441-42.38 M209.585-838.274L-53.069-456.856 M218.341-372.097l-89.144,522.684   M1085.099-75.991L831.2-372.097 M1225.182-75.438l-168.51,277.022L778.669-47.186 M1286.468-1390.493l-157.593,340.32  l218.878,296.658l227.634-211.898l225.258-39.815l-233.672,209.334 M1374.019-1233.818l-245.144,183.646l-43.776-254.278   M1549.121-1445.717l-262.653,55.224l-236.39-295.929l148.838-239.6l-210.123-28.253l145.049-304.066 M1523.198-2236.807  l-122.922,550.938l-201.36-240.152 M831.201-3183.287l270.965-423.798l236.833-155.393l-26.266,706.329l183.858,268.405  l26.607,550.937l-159.131-574.018l-274.12,148l249.051,313.005l-205.156,91.479l-171.315-63.845 M1102.166-3607.085l50.974,642.994   M1610.408-2462.832l-87.209,226.025l-202.052,282.532l-122.23,28.253l140.083-423.798l25.069-461.005l-210.928-153.267  l-274.641,110.873l-47.298-330.069 M612.313-3508.171l315.193,14.126l174.659-113.04l-165.904-197.772l192.613-14.126  l210.124,56.506l-122.572,381.418l96.306,324.911l218.879-324.911l-35.021,593.316l183.858-169.52l120.196,25.688 M758.09-2351.006  l45.981-198.985l-128.437-194.613l202.865-108.613 M962.527-2322.186l-262.654,410.291l8.755,353.165 M1225.182-75.438  l-140.083-0.553l-28.427,277.575 M1566.973-795.895l-61.627,339.038l-157.593-296.658 M1435.304-174.324l-210.123-282.532  L1085.099-75.991 M1050.078-1686.422l35.021,381.971l201.369-86.042l113.809-295.376l192.962-42.38l-44.117,282.532l26.266,480.304  l-201.368-268.405l-26.266,480.304h-201.368l78.797,296.658l-201.368-98.886l105.062-494.431L778.669-711.135l78.797-508.557  l43.775-437.925 M831.2-372.097L778.669-47.186L603.695,206.083l-43.904-422.787l-341.45-155.393 M375.6-2448.705l300.034-295.899  l-177.129,634.938l61.286,381.418L445.975-1106.68l-7.097,317.849 M-44.313-3183.288l332.875-234.441l157.088,385.35   M-455.822-3762.533l107.473-324.856l102.668,395.544l-61.286,409.671 M708.628-1558.729l192.613-98.887l87.552-296.658  l-288.92,42.38 M183.337-1827.135l315.168-282.532l259.584-241.339l204.438,28.82l127.42-340.639l63.192-301.267l-321.939-219.196  l-155.566,438.683l-233.149-23.921l3.164-263.854l35.859-292.341l-192.947-93.009l-110.372,448.077L-105.6-2660.604   M111.347-1419.313l71.991-407.821l148.82,353.164l-220.811,411.133 M60.748-2194.427l-152.463,543.874l-145.212-501.495  l26.266,593.318l-192.271,339.065 M209.585-838.274l236.39-268.405l-334.628,43.842L-245.682-894.78 M-187.115-205.86  l239.108,31.619 M218.341-372.097l-271.41-84.76 M-490.485-159.067l303.37-46.793 M-525.846-2759.491l218.878-522.684   M183.337-1827.135l26.248-324.913l-148.837-42.379L-105.6-2660.604l-201.368-621.57l-323.94-240.152 M-366.202-456.857l313.132,0  L-245.682-894.78l192.954-452.051l164.074-72.482v356.476l98.238,224.563l229.293,49.443L218.341-372.097l376.47-211.899  l87.551-437.924l17.853-324.911l-140.423-381.418l-227.634,254.278l113.817,367.291 M-613.056-1092.553l210.123-127.111   M-825.897-2931.575l300.052,172.084l17.852,254.279l271.067,353.164l297.675-42.379 M559.791-216.704l35.02-367.292L831.2-372.097  l192.613-183.646L778.669-711.135l-96.307-310.785l175.104-197.771l-157.251-127.14l201.026-310.785l-201.368-254.278  l-201.368-197.772L375.6-2448.705l-141.1-331.616l-164.997,232.73l108.686-422.061l-222.503-213.636l-61.286,522.684  l-236.389,42.379l35.021-663.95l-148.855-480.359l-131.31-324.856l-43.776,565.063l8.755,353.165 M-366.202-456.857l120.52-437.923  l175.103,98.969l17.51,338.955L51.993-174.241 M-604.643-499.237l132.012-367.844l69.698-352.583l350.205-127.167l-38.987-303.722  l-118.946,91.823l-96.306-466.178l-306.43-254.279v452.051l192.271,268.405 M-613.056-1092.553l-212.842,87.324 M-762.253,9.321  l175.462,141.266l96.306-309.654l-114.158-340.17 M-53.069-456.856L-187.115-205.86l-161.235,356.447 M1575.387-965.413  l-8.414,169.519l-219.22,42.38l-122.571,296.658v381.418l210.123-98.886l70.042-282.532l148.837,381.418 M1680.449-2957.263  l-148.837-423.797l-192.613-381.418h315.185 M1084.312-4087.389l44.563,268.405l-26.709,211.898l114.26,226.025l-63.287,416.969  l159.593-92.058l51.335,245.324l132.523,23.081l113.817,324.911 M606.748-4087.389l-125.24,762.669l130.805-183.451l218.887,324.884  l96.306-310.758l-192.613-268.433l201.368-42.38 M129.198-4087.389l159.363,669.661l104.882-344.749 M-613.397-2279.187  l105.403-226.025l166.006-113.013l-183.857-141.266l-96.307-409.67l315.185-113.013l262.654,98.887l131.669-536.811l-333.037,28.253  l-210.141-70.688l-175.085,240.207 M-613.397-1827.135l306.43-197.772l70.041-127.14l131.327-508.557l175.103,113.013  l-8.755,353.165l122.589,367.292l-275.052,176.582l203.062,231.239l220.811-54.657l166.348-635.696l-288.92-42.38L375.6-2448.705  l66.885-319.82L234.5-2780.321l-56.311-189.331l267.46-62.727l229.985,287.774l82.456,393.599l-58.217,439.111l-140.082,183.646  l148.836,169.52l-8.413,211.898l-254.24,240.151l236.388,84.76L438.878-788.831l155.933,204.835l183.858-127.139L831.2-372.097  L559.791-216.704L778.669-47.186l306.43-28.806l-61.285-479.751l122.571-197.772l-17.51-296.658l-271.409-169.519l227.633-84.76  l-183.857-353.165l148.837-28.806l-61.285-267.853l-26.266-367.911l-158.456-227.806l74.428-303.227l211.448,190.394l43.895,404.483  l65.074,332.319l87.552,535.528l87.551,156.675l175.103-211.898l-148.845-240.152l-79.13-268.405l17.852-395.545l184.2,113.013  l105.061,240.152l-35.021,268.405 M-825.898,150.587l63.646-141.266l271.768-168.388l124.284-297.79l-238.441-42.38l-8.413-593.316  l140.425,225.473l226.949-27.7l-157.251-324.884l-18.194-339.066l210.466,0l157.934,211.898l164.074,283.993L-70.579-795.812  l280.164-42.463l8.756,466.178L51.993-174.241l77.204,324.828 M-366.202-456.857l179.086,250.997 M-490.485-159.067l142.135,309.654   M1651.652-3762.478l-61.216-231.447l210.2-93.464 M1419.026-4196.691l-329.079,109.303l211.166,184.031 M1128.533-3821.04  l172.58-82.317l38.227,140.824l251.096-231.392 M1800.635,150.587l-210.2,93.479l63.748-319.504L1419.025,41.299l16.09-215.623   M1378.355,142.47l-321.684,59.114l362.354-160.285L1225.182-71.906 M1378.355,142.47l40.67-101.171l171.41,202.767L1378.355,142.47  z M1301.113-3903.357l117.913-293.334l171.41,202.767L1301.113-3903.357z M-105.6-2660.604l-35.704-447.388 M-740.21-3410.928  l118.058,241.767l105.565,118.793 M-825.897-2931.575l132.66,228.026l-65.03,243.311 M-53.069-456.856l182.267-71.185   M209.585-838.274l-80.387,310.233l89.143,155.944h245.485 M594.811-583.996L463.826-372.097l95.965,155.393 M699.873-1911.895  l183.516-140.148 M962.527-2322.186l-79.139,270.143l105.404,97.769 M1089.947-2662.824l162.184,46.241 M1338.999-2349.819  l-86.868-266.764l111.937-194.241 M1575.045-2986.081l-43.434-394.979l-94.64,324.911 M1505.003-3635.891l-165.664-126.643  l43.084,373.845 M1680.449-2957.263l-105.404-28.818l-78.454,198.338l-59.619-268.405h-124.239l69.691-332.54l149.188,7.629  l-26.608-254.831l149.18-126.587 M288.562-3417.729L128.6-3183.287 M178.189-2969.652L128.6-3183.287l-172.914,0l-96.99,75.295  l-165.664-174.182l-209.62,231.807l-9.259,290.877l-167.392,55.942 M-91.715-1650.553l20.793-374.369 M60.748-2194.427  l-131.669,169.505l-166.005-127.125 M-613.397-2279.187l87.561,254.265 M-306.967-2024.908l-218.87-0.014l-87.561,197.787   M-586.791-1419.314l-26.265,326.761l-54.406,317.848 M-604.643-499.237l-62.819-275.469h-126.006 M-421.127-1558.73  l-165.664,139.416l-98.529-199.979"/>
<path fill="none" stroke="#E30613" stroke-width="8" stroke-miterlimit="10" d="M1610.267-1511.411l-758.912,193.05   M-749.159-2275.085l-427.214-44.385 M-1601.547-2135.882l425.174-183.588l45.849-192.261 M-1850.921-1996.679l-337.275-139.203   M-3203.728-3107.083l-18.775,247.345l-56.235,222.726 M-2615.41-2038.439l427.214-97.442l44.97-250.565l-493.79-271.446   M-3693.808-2456.05l415.07-180.963l348.539,83.521l293.183-104.402l-45.848-285.367 M-3469.837-3291.269l266.109,184.186  l318.499-128.504 M-3222.503-3834.161l493.769,124.29 M-2559.197-3483.516l-169.537-226.356l248.234-138.21 M-1468.678-3653.197  l465.949,209.348l-61.22,152.581 M82.783-3584.126l-91.718,209.607 M959.696-3151.005l-405.937,43.922L-8.935-3374.519  l-447.921-14.193l-545.873-55.137 M1252-2859.738l-292.304-291.267l52.106-321.745 M1252-4251.771l408.198,247.493   M1625.154-3722.513l35.044-281.765l446.229-38.145 M1409.396-4669.381l-682.718-159.813l-149.225-188.196 M-389.4-4558.018h594.008   M420.058-4349.213l-215.45-208.805l147.995-167.044l374.075-104.131 M-1141.768-4706.792l550.002,37.412l-396.517-255.351   M-1333.769-4516.257l192.001-190.535l-192.001-144.097l345.486-73.843l81.728-231.86 M-3458.618-5143.216l438.479,0.544  l185.501,189.285 M-3087.594-4763.56l252.956-189.828l399.987,20.608 M-3829.597-5393.265l370.979,250.049l-102.961,182.051   M-1176.373-2748.376l-448.82,69.058 M-1738.497-2456.05l113.304-223.269l-248.213-138.659 M-906.555-3889.816l-45.849,208.234   M-1468.678-3653.197l516.274-28.384l495.548,292.87l475.874,237.707 M-2053.286-3472.232l403.83,194.286 M-1671.042-3068.001  l21.586-209.945l585.508-13.322 M-72.723-2975.981l91.741-175.023l534.741,43.922 M726.655-4586.403l682.74-82.978l336.375-208.289   M1791.64-5184.433l-45.869,306.764l428.2-28.385 M2061.459-4571.938l-337.229,320.167 M2106.428-4042.423l-382.197-209.348H1252  l-340.039,42.848 M352.603-4725.062l374.053,138.659l-306.598,237.19 M911.961-3898v-310.923l-491.903-140.291l-562.562-6.307   M-321.945-4084.727l179.441-270.793L-389.4-4558.018 M-2123.068-4004.278l47.297-294.474l404.729,33.604 M-2931.099-4478.819  l540.539-93.119l314.789,273.186 M-3087.594-4763.56l156.495,284.741l-156.495,213.128 M2447.436-2733.913l243.602,276.613  l57.99-472.041l-57.99-287.27l-222.016,199.426l-295.139,4.322L2447.436-2733.913l-206.098,41.219 M-3996.455-2929.341  l-58.013,473.291"/>
<path fill="none" stroke="#E30613" stroke-width="8" stroke-miterlimit="10" d="M9440.098-3215.587l-58.013,287.686l-256.894-13.94   M2692.102-1314.583l-359.894-233.205l508.714-101.504 M2935.794-2732.19l-301.706-195.711l280.112-87.973L2935.794-2732.19z   M9616.309-4209.34l-176.211,233.367l-314.884-414.865l-202.329,291.934 M8872.539-4479.629l252.675,88.791l314.884-345.52  l243.693,228.304 M2692.102-4736.359l243.692,228.304 M3321.914-4572.883l-386.12,64.829l341.134,465.455l-408.613-166.741  l-176.213,233.367 M2692.102-3215.587l84.459-262.885 M3209.447-3555.225l-432.887,76.753l-84.459-497.502 M8855.27-3290.354  l183.902-166.143l-431.328-377.538l614.285,41.794l217.969-183.732l84.482,497.502l-84.482,262.885l-400.926-240.911   M9524.58-3478.472l-485.408,21.974l182.957-335.744L9524.58-3478.472z M9683.791-4508.055l-67.482,298.714l-491.095-181.499  L9683.791-4508.055z M2935.794-4508.055l-67.479,298.714l-491.098-181.499L2935.794-4508.055z M2692.102-3215.587l922.271,8.861  l427.438-37.288l330.151-228.086l401.343-336.206l573.909-60.581l426.473,20.91 M9440.098-4736.359v-379.663v-380.722   M2692.102-4736.359v-380.206 M3769.209-5360.306l-810.922,46.37l-266.186,197.372v-380.179l266.186,182.808 M5706.207-4084.965  l-358.994,216.078 M5301.326-3583.637l45.887-285.25l-203.34-202.138 M7258.291-4823.27l112.422,250.386 M7055.805-4265.649  l314.908-307.234h404.879 M7508-4004.398l-213.6,282.188 M7438.191-3471.582L7294.4-3722.211l-441.033,69.402 M8068.006-2941.842  l-493.955,264.326 M7528.166-2384.221l45.885-293.295l-315.805-138.86 M4960.39-2446.204l179.662-455.191 M3906.477-3415.002  l135.333,170.988l89.864,385.815l-66.513,306.691 M3456.874-2426.749l608.287-124.758l415.532,205.922 M8247.996-1542.915  l832.208-4.873l-157.452-348.514 M4491.566-1505.967l468.801,90.138l616.129-63.359 M3209.447-1547.788l563.826,39.875   M3209.447-1547.788l202.439,163.461l361.387-123.586 M4491.566-1505.967l-718.293-1.946l43.494-235.043 M7663.125-1673.253  l-517.324,149.846l-247.449-191.668l-186.887,299.246l-262.979-229l-262.935,260.502l-164.438-204.74l-444.616,109.879  l-297.663-138.303l-318.466,201.662 M7599.73-1314.583l648.266-228.332l-314.949-143.734 M8472.885-1784.778l70.291,168.377   M9080.204-1547.788l-537.028-68.613l-295.18,73.486l1192.102,228.332 M3769.209-1178.147l-1077.107-136.436 M5282.963-1206.899  l-322.596-208.93 M5576.496-1479.188l609.055,94.861 M7599.73-1314.598l-453.93-208.81l-434.336,107.578 M8247.996-1542.915  l832.208,299.49 M9080.204-1243.425l359.894-71.158 M6621.973-1090.745l748.74-58.594 M6711.465-1415.829l153.146,172.391  l-242.639,152.693 M7370.713-1149.339l229.018-165.259l367.055,51.651 M8472.885-1168.849l607.319-74.576 M6621.973-1090.745  l-696.039-139.732 M4960.367-1415.829l-427.899,101.246 M4280.121-1261.601l252.347-52.982l750.495,107.684 M3769.209-1178.147  l-357.322-206.18l-719.785,69.744 M6185.551-1384.327l-259.617,153.85 M9440.098-5496.744l-1192.102-228.331 M2692.102-5496.744  v380.179 M2692.102-5116.564l1077.107-243.741l-1077.107-136.438 M5211.352-4990.556l71.611-398.502l-322.596-208.931   M5576.496-5661.348l609.055,94.861 M7599.73-5496.744l-453.93-208.808l-434.336,107.563 M8247.996-5725.075l832.208,299.49   M9215.164-5395.402l-809.758,250.957l674.798-281.139l359.894-71.159 M7966.785-5445.106l-506.102,287.264l-838.711-115.064  l748.74-58.593 M6711.465-5597.989l153.146,172.392l-242.639,152.691l96.434,420.667l742.277-305.603l-89.971-173.657  l229.018-165.244l367.055,51.637l438.621,300.661l67.479-206.563l607.319-74.576l134.96,30.182 M6291.033-5158.385l330.939-114.521  l-696.039-139.731L6291.033-5158.385z M4960.367-5597.989l-427.899,101.246 M4154.167-5172.327l125.954-271.432l252.347-52.985  l750.495,107.686 M3591.834-5186.268l177.375-174.038l-357.322-206.181l-719.785,69.743 M6185.551-5566.487l-259.617,153.849  l-354.688,254.252l-288.283-230.673l-476.49,370.077 M6864.611-5425.598l281.189-279.954l224.912,374.052L6864.611-5425.598z   M3769.209-5360.306l510.912-83.453L3769.209-5360.306z M6711.465-5597.989l-89.492,325.083l-436.422-293.58L6711.465-5597.989z   M5576.496-5661.348l349.438,248.71l-642.971,23.58L5576.496-5661.348z M7966.785-5445.106l281.211-279.968l224.889,374.066  L7966.785-5445.106z M3769.209-1178.147l4.064-329.766l506.848,246.313L3769.209-1178.147z M6711.465-1415.829l-89.492,325.084  l-436.422-293.582L6711.465-1415.829z M5576.496-1479.188l349.438,248.711l-642.971,23.578L5576.496-1479.188z M7966.785-1262.946  l281.211-279.969l224.889,374.066L7966.785-1262.946z M6864.611-1243.425l281.189-279.969l224.912,374.068L6864.611-1243.425z   M9440.098-1314.598l-359.894-233.19 M8472.885-2230.874v446.096l-224.889,241.863 M6448.485-1644.829l-809.76-111.523   M6021.112-1589.067l-742.279-28.424l-787.267,111.524 M3816.768-1742.956l-607.32,195.168l-517.346,233.19 M2692.102-2455.177  l449.867-235.734l494.897-13.941 M3614.372-3206.726l-404.925,195.181l-517.346-204.042l517.346-339.638l-517.346-420.749  l584.826-66.626 M4131.674-2858.198l240.287-613.901 M3906.477-3415.002l-697.029-140.223 M3276.928-4042.6l481.453,320.374   M3321.914-4572.883l809.76,320.632 M5031.407-4726.23l742.278,167.286 M4532.468-5496.744l-378.301,324.417 M6718.406-4852.239  l-742.279,181.772l-764.775-320.088 M7819.699-4934.248l653.186,169.464l-67.479-379.662 M7865.564-3847.977l607.32-418.216   M8607.844-3834.035l832.254-141.938 M9079.326-2453.924l-471.482-404.274 M9080.204-2230.874l359.894-224.303l-314.906-486.665   M6986.283-2133.29l541.883-250.931l472.357,348.515l-337.398,362.453l-63.395,358.67l333.316-372.066 M7235.752-1993.886  l292.414-390.335l-404.881-69.703 M6898.352-1715.075l87.932-418.215l-471.197-376.396l-381.506,236.99l-44.987-334.572  l-484.157,230.957 M5638.726-1756.353l877.239-195.725l-382.385-320.619 M4131.674-2858.198l-674.8,431.449l-247.427,377.102  l1124.666-41.821l427.374,292.75l877.238,42.366l-913.988-253.379l235.652-436.473l498.391,396.557l145.655-326.664  l-101.656-272.779 M3456.874-2426.749l1023.819,81.164 M5278.833-1617.491l359.893-138.861l449.867-321.721l44.987-194.623  l-674.8,223.049l-734.043,39.916l-244.044-335.854l176.541-437.302l-525.561-75.312 M3614.372-3206.726l22.494,501.873  l-179.992,278.104l-314.905-264.162l-22.494,306.69l89.973,334.573l607.32-195.168l517.346,153.347l-517.346,348.513l944.72-55.763  l-269.921,292.752l40.901,191.384 M5456.89-2974.61l-316.838,73.215l-309.877-204.506l-172.94,323.015 M5502.779-2649.091  l653.294-418.216l562.333,13.94 M9080.204-2230.874l-0.878-223.05l360.771-1.253 M7933.047-1686.649l539.838-98.129  l-472.361-250.928 M8922.752-1896.302l-449.867-334.572l606.441-223.05 M6515.086-2509.687l608.199,55.763l-137.002,320.634  l-470.318,181.213l-67.479,307.248l449.866-70.246l764.773,41.822l-427.373-320.633l764.771-41.82v-320.634l472.361,125.466  l-157.455-320.633l-787.264,167.286l539.84-557.621l-809.76,125.466l-697.293,69.701 M8607.844-2858.198l517.348-83.644  l314.906-273.745l-584.828-74.768l-247.426-543.681 M5301.326-3583.637l-471.151,477.735l1010.991-282.037l607.319,97.584  l989.706-181.227l506.102-11.299 M4131.674-4252.251l-373.293,530.026l613.58,250.126 M3209.36-4907.485l-517.259,171.126  l629.813,163.476l652.306-97.584 M6718.406-3053.366l-157.453,306.691l-472.36,139.406l67.48-460.038 M6291.033-3889.771  l-449.867,501.833L5456.89-2974.61l45.89,325.52l-542.39,202.887l-479.696,100.619l-349.02-512.613l698.501-247.703l-38.088-371.235  l-420.126,5.037l-465.484,57.098l-148.096-307.224l713.46-175.741l492.086-451.869 M6940.395-4004.398l-649.361,114.627  l562.334,236.963L7508-4004.398 M5706.207-4084.965l865.992-242.761l-798.514-231.218l944.721,41.822l539.885-306.148   M7865.564-3847.977l-427.373,376.395L7508-4004.398l267.592-568.485 M8872.539-4479.629l50.346,380.724 M8607.844-3834.035  l-134.959-432.158 M8947.047-4962.675l-74.508,483.046 M4806.473-5018.981l-832.253,348.514 M6291.033-3889.771l-517.348,41.795  l-67.479-236.989l-742.28-264.87l-989.707-320.632l-382.386-515.8 M8472.885-4764.784v498.591l-697.293-306.69l-719.787,307.234  l-115.41,261.25H7508l357.564,156.422l78.729,365.096l663.551-351.154l-337.398,599.442l-697.293,139.404l-517.348,28.426  l-607.319-223.592l404.882-362.454l584.824,181.227 M7460.684-5157.842l-202.393,334.573 M4532.468-5496.744l274.005,477.762  l404.879,28.426l562.334,431.612l-67.479,473.979 M8855.27-3290.354l-584.824,55.762l337.398,376.395l-292.414,306.691  l-247.424-390.335l-494.854-153.347l-314.906,278.813l-202.441-250.387l-494.852,320.088l-404.88-320.632l-314.907-320.632  l-539.84-195.698l-528.022-224.669l370.569-262.719l-672.032,173.058l-340.167-354.285l832.253-97.583l67.48-376.395  l-1057.188,55.763l-764.859-237.018l-517.259-209.08l899.732-69.703l562.333,13.941 M8472.885-4764.784l-697.293,191.9  l157.584,278.81l539.709,27.881l450,167.288 M8405.406-5144.445l-585.707,210.197l-561.408,110.979l-202.486,557.621  l-483.605-62.077l146.207-189.396l-742.279-153.346l-404.881-487.918h719.787l427.373,306.146 M7460.684-5157.842l139.047-338.901   M9215.164-5395.402l224.934,279.381l-493.051,153.346l-541.641-181.77 M8472.885-4266.193l399.654-213.437l567.559-256.729   M7663.125-1673.253l269.922-13.396l67.477-349.057l472.361-195.168h607.319l-157.452,334.572l-449.867,111.523l607.319,236.99   M4491.566-1505.967l-674.799-236.989l-607.32-306.691v501.859 M2692.102-2455.177l427.373,70.956l337.399-42.528l359.894,181.934  l663.926-100.77l-146.58,254.116l390.624,81.737l36.75,211.013l517.346,181.228 M2692.102-3215.587l1214.375-199.415  l-292.104,208.276l517.302,348.527l-494.808,153.346l-427.419-306.692l-67.479,320.634 M2692.102-3975.974l1066.279,253.748  l-548.934,167.001 M5571.246-5158.385l-359.895,167.83l-179.944,264.326l-224.935-292.751l-652.306-153.345l-179.947,501.859  l157.454,418.216L3276.928-4042.6l44.986-530.284l-112.554-334.602l382.474-278.783 M6291.033-5158.385l-314.906,487.918  l-202.441,111.523l-809.759,209.109l179.946,278.81l562.334-13.94l584.826,195.194l281.166-437.955l368.195,323.328l-87.027,351.59  l-1012.201,264.87l-67.48-460.038l-472.359,264.34l-509.239,106.5l-18.783-331.169l-301.463-89.661l-99.88,425.867l458.214,366.198  l626.715,131.291l699.184-92.696l292.412-223.048l269.921,236.988l337.398-13.396l382.387-404.819l134.961,376.393l371.141-387.692  l326.152,248.288l-202.439,292.751l539.838,83.644l247.426-432.156l269.922,348.513l-45.865,487.918l-763.896-97.583  l-314.906,195.167l-472.357-27.881l-269.92-432.155l-134.961,362.452l-562.332-292.751l-45.867,236.988l-426.493-97.582  l-585.813-41.822l-362.728-252.305l-482.817,118.509l303.155,336.683l644.046,69.893l529.145,103.615l852.703,139.406  l249.469,139.404l-337.4,278.811l-382.387-237.002l-427.372-125.996l-629.813,28.426l179.945,293.295l382.387,167.285  l427.373-55.762 M9440.098-5496.744l-224.934,101.341l-268.117,432.727l-474.162,197.892l-67.479-379.662l-944.723-13.397  l359.016,223.594l-44.107,361.365l-517.301-250.386l-539.885-28.97v335.118l337.398,251.473L7508-4004.398l425.176-289.675  l-67.611,446.097l742.279,13.941l315.041-264.87l517.213,122.932 M8472.885-4764.784l399.654,285.154 M8947.047-4962.675  l493.051,226.316 M3209.447-1551.819l-368.525-97.473l-148.82,334.694 M2518.063-1922.223l174.038-523.981l293.027,336.233   M3116.201-2384.765l-131.072,274.794l224.231,60.866l-368.438,399.813 M9440.098-1314.598l148.844-334.694l-508.737,101.504  l185.878-374.435l-343.33,25.62 M9733.125-2109.971l-293.005-343.953l-174.038,531.701l-180.254-308.651 M9733.125-2109.971  l-467.043,187.748l322.859,272.931L9733.125-2109.971z M2985.129-2109.971l-467.065,187.748l322.858,272.931L2985.129-2109.971z   M4963.927-4349.835l-712.362-56.852 M3769.209-5360.306l384.958,187.979l189.151,168.089 M4532.468-5496.744l363.079,211.232  l387.416-103.547 M8472.885-4266.193l-113.346,290.219 M7865.564-3847.977l493.975-127.997l248.305,141.938v390.878   M8270.445-3234.593l337.398-208.564l247.426,152.802 M6156.073-3067.307l-223.155,292.206 M5502.779-2649.091l430.139-126.01  l155.675,167.832 M4960.39-2446.204l73.63,258.24 M5458.78-2049.647l-424.761-138.316l-309.282,178.232 M4445.68-1673.798  l-628.912-69.158l517.346-150.691 M3411.008-1785.323l-201.647-263.781l595.261,68.602 M4491.566-1505.967l-45.887-167.831  l315.808-124.921l-427.374-94.929v-197.821l-529.492,110.966l12.146,237.547l-405.76-42.367l-201.561,237.535 M3758.381-3722.226  l373.293-254.701 M4471.841-3897.966l-340.167-78.96v-275.325l119.891-154.435l-277.345-263.781l369.099-333.77l463.154-14.744  l89.074-266.53 M6572.199-4327.726l-596.098,33.107 M5706.207-4084.965l269.895-209.654l-202.416-264.325 M5571.246-5158.385  l404.855,139.419 M5976.127-4670.467l-0.025-348.499l314.932-139.419 M6940.395-5116.021l520.289-41.821l506.102-86.63   M8405.406-5144.445l-438.621-100.027v-200.634 M6718.406-4852.239l221.988-263.782l-318.422-156.885"/>
<path fill="none" stroke="#E30613" stroke-width="2" stroke-linecap="round" stroke-linejoin="round" stroke-miterlimit="10" d="  M6596.23-860.264l-29.416,145.878l-130.264-7.069 M3174.502,103.686L2992.01-14.567l257.955-51.47 M3298.072-615.146l-152.987-99.24  l142.037-44.608L3298.072-615.146z M6685.584-1364.169l-89.354,118.334l-159.669-210.368l-102.595,148.032 M6308.438-1501.226  l128.124,45.023l159.669-175.204l123.57,115.767 M3174.502-1631.406l123.57,115.767 M3493.863-1548.512l-195.791,32.873  l172.98,236.021l-207.197-84.55l-89.354,118.334 M3174.502-860.264l42.827-133.302 M3436.834-1032.485l-219.505,38.919  l-42.827-252.27 M6299.68-898.176l93.253-84.247l-218.716-191.439l311.486,21.192l110.527-93.165l42.84,252.27l-42.84,133.302  l-203.298-122.159 M6639.07-993.565l-246.138,11.143l92.771-170.247L6639.07-993.565z M6719.801-1515.64l-34.217,151.471  l-249.022-92.034L6719.801-1515.64z M3298.072-1515.64l-34.217,151.471l-249.023-92.034L3298.072-1515.64z M3174.502-860.264  l467.659,4.493l216.742-18.907l167.41-115.656l203.511-170.481l291.014-30.719l216.253,10.603 M6596.23-1631.406v-192.517v-193.055   M3174.502-1631.406v-192.792 M3720.674-1947.793l-411.196,23.513l-134.976,100.082v-192.779l134.976,92.697 M4702.875-1301.103  l-182.037,109.568 M4497.57-1046.892l23.268-144.643l-103.107-102.499 M5489.896-1675.477l57.006,126.964 M5387.219-1392.722  l159.683-155.791h205.302 M5616.516-1260.249l-108.311,143.09 M5581.118-990.071l-72.913-127.088l-223.637,35.192 M5900.48-721.455  l-250.472,134.033 M5626.742-438.7l23.267-148.722l-160.136-70.412 M4324.69-470.13l91.103-230.815 M3790.279-961.382l68.624,86.704  l45.567,195.637l-33.727,155.515 M3562.298-460.265l308.446-63.262l210.705,104.417 M5991.748-12.096l421.991-2.471l-79.841-176.722   M4086.963,6.64l237.717,45.706l312.422-32.128 M3436.834-14.567l285.901,20.219 M3436.834-14.567l102.652,82.887l183.249-62.668   M4086.963,6.64l-364.228-0.987l22.055-119.184 M5695.176-78.187L5432.854-2.204l-125.475-97.19l-94.766,151.74l-133.351-116.12  L4945.938,68.32l-83.383-103.819l-225.453,55.716l-150.938-70.129L4324.68,52.346 M5663.03,103.686l328.718-115.782L5832.046-84.98   M6105.783-134.738l35.643,85.379 M6413.739-14.567l-272.313-34.792l-149.678,37.263l604.482,115.782 M3541.521,221.164  l-367.02-117.479 M4057,203.971l267.68-151.625 M4637.102,20.218l308.836,48.103 M5663.03,103.678L5432.854-2.204l-220.24,54.55   M5991.748-12.096l421.991,151.864 M6413.739,139.768l182.491-36.082 M5546.901,187.476 M5212.614,52.346l117.47,276.5   M5546.901,187.476l116.129-83.798l186.122,26.191 M6105.783,177.582l307.956-37.814 M4814.292,146.333 M4324.68,52.346   M3541.521,221.164l-2.035-152.844l-364.984,35.365 M4945.938,68.32L4790,89.971 M6596.23-2016.978l-604.482-115.78   M3174.502-2016.978v192.779 M3174.502-1824.199l546.172-123.594l-546.172-69.185 M4451.947-1760.303l36.312-202.07  l-163.579-105.943 M4637.102-2100.443l308.836,48.102 M5663.03-2016.978l-230.176-105.881l-220.24,54.542 M5991.748-2132.758  l421.991,151.863 M6482.173-1965.59l-410.606,127.253l342.173-142.558l182.491-36.083 M5849.152-1990.793l-256.63,145.664  l-425.288-58.346l379.667-29.711 M5212.614-2068.316l77.656,87.416l-123.036,77.425l48.898,213.309l376.39-154.963l-45.621-88.057  l116.129-83.791l186.122,26.184l222.414,152.457l34.217-104.742l307.956-37.815l68.434,15.305 M4999.425-1845.405l167.81-58.07  l-352.942-70.854L4999.425-1845.405z M4324.68-2068.316l-216.977,51.339 M3915.876-1852.475l63.868-137.635l127.959-26.868  l380.556,54.604 M3630.732-1859.543l89.941-88.25l-181.188-104.549l-364.984,35.364 M4945.938-2052.342l-131.646,78.013  l-179.853,128.924l-146.181-116.968l-241.615,187.656 M5290.271-1980.901l142.584-141.958l114.047,189.672L5290.271-1980.901z   M3720.674-1947.793l259.07-42.317L3720.674-1947.793z M5212.614-2068.316l-45.38,164.841l-221.297-148.866L5212.614-2068.316z   M4637.102-2100.443l177.19,126.114l-326.033,11.956L4637.102-2100.443z M5849.152-1990.793l142.596-141.964l114.035,189.679  L5849.152-1990.793z M3541.521,221.164L3722.735,5.652L4057,203.971L3541.521,221.164z M5212.614,52.346l-79.23,4.746  L4945.938,68.32L5212.614,52.346z M4637.102,20.218L4790,89.971 M5849.152,129.869l142.596-141.965l114.035,189.678  L5849.152,129.869z M5330.084,328.846L5432.854-2.197l114.047,189.68L5330.084,328.846z M6596.23,103.678L6413.739-14.567   M6105.783-360.942v226.204L5991.748-12.096 M5079.264-63.774l-410.606-56.551 M4862.555-35.499l-376.391-14.413L4086.963,6.64   M3744.79-113.531l-307.956,98.964l-262.332,118.245 M3174.502-474.68l228.115-119.535l250.95-7.069 M3642.161-855.771  l-205.327,98.971l-262.332-103.464l262.332-172.221l-262.332-213.35l296.551-33.784 M3904.471-679.041l121.843-311.293   M3790.279-961.382l-353.445-71.103 M3471.053-1279.619l244.131,162.453 M3493.863-1548.512l410.607,162.583 M4360.701-1626.271  l376.39,84.826 M4107.703-2016.978l-191.827,164.503 M5216.133-1690.167l-376.39,92.171l-387.796-162.308 M5774.568-1731.751  l331.215,85.931l-34.217-192.517 M5797.827-1180.931l307.956-212.067 M6174.217-1173.862l422.014-71.973 M6413.293-474.044  l-239.076-204.997 M6413.739-360.942L6596.23-474.68l-159.68-246.775 M5351.968-311.459l274.774-127.24l239.52,176.723  l-171.086,183.79l-32.146,181.873L5832.046-84.98 M5478.465-240.771L5626.742-438.7l-205.305-35.345 M5307.38-99.394l44.588-212.065  L5113.035-502.32l-193.451,120.172l-22.812-169.653L4651.27-434.689 M4668.657-120.325l444.824-99.247l-193.897-162.577   M3904.471-679.041l-342.173,218.776l-125.464,191.218l570.289-21.206l216.71,148.445l444.824,21.483l-463.46-128.481  L4324.69-470.13l252.721,201.083l73.858-165.643l-51.548-138.319 M3562.298-460.265l519.151,41.156 M4486.164-49.912l182.493-70.413  l228.115-163.136l22.812-98.688l-342.173,113.102l-372.214,20.241l-123.748-170.303l89.52-221.744l-266.498-38.188   M3642.161-855.771l11.406,254.487l-91.27,141.019l-159.681-133.95L3391.211-438.7l45.623,169.653l307.956-98.964l262.333,77.758  L3744.79-113.531l479.043-28.276L4086.963,6.64L4057,203.971 M4576.453-738.071l-160.66,37.125l-157.131-103.699l-87.693,163.792   M4599.722-573.008l331.268-212.066l285.144,7.068 M6413.739-360.942l-0.446-113.103l182.938-0.635 M5832.046-84.98l273.737-49.758  l-239.521-127.239 M6333.898-191.289l-228.115-169.653l307.51-113.103 M5113.035-502.32l308.402,28.276l-69.47,162.585  l-238.486,91.888l-34.218,155.797l228.116-35.62l387.796,21.207l-216.711-162.584l387.797-21.206v-162.585l239.521,63.62  l-79.841-162.584l-399.2,84.827l273.738-282.755l-410.607,63.621l-353.579,35.344 M6174.217-679.041l262.334-42.414l159.68-138.809  l-296.551-37.912l-125.463-275.687 M4497.57-1046.892l-238.908,242.247l512.646-143.014l307.955,49.482l501.854-91.896l256.63-5.73   M3904.471-1385.929l-189.287,268.762l311.13,126.833 M3436.79-1718.18l-262.288,86.773l319.361,82.894l330.767-49.483   M5216.133-778.006l-79.839,155.516l-239.521,70.689l34.217-233.273 M4999.425-1202.124l-228.116,254.466l-194.855,209.587  l23.269,165.063L4324.69-470.13l-243.241,51.021l-176.979-259.932l354.191-125.604l-19.313-188.244l-213.035,2.555l-236.034,28.952  l-75.096-155.785l361.777-89.114l249.523-229.13 M5328.698-1260.249l-329.273,58.125l285.144,120.157l331.947-178.282   M4702.875-1301.103l439.121-123.097l-404.905-117.245l479.042,21.207l273.763-155.239 M5797.827-1180.931l-216.709,190.86  l35.397-270.178l135.688-288.263 M6308.438-1501.226l25.529,193.055 M6174.217-1173.862l-68.434-219.136 M6346.217-1746.166  l-37.779,244.94 M4246.644-1774.717l-422.014,176.722 M4999.425-1202.124l-262.334,21.193l-34.216-120.171l-376.391-134.308  l-501.854-162.584l-193.897-261.548 M6105.783-1645.82v252.822l-353.58-155.514l-364.984,155.791l-58.521,132.473h287.817  l181.312,79.318l39.921,185.13l336.469-178.061L6003.132-869.9l-353.579,70.688l-262.334,14.414l-307.955-113.377l205.305-183.791  l296.55,91.896 M5592.522-1845.129l-102.627,169.653 M4107.703-2016.978l138.94,242.261l205.304,14.414l285.144,218.858  l-34.216,240.342 M6299.68-898.176L6003.132-869.9l171.085,190.859l-148.274,155.515L5900.48-721.455l-250.928-77.758  l-159.68,141.379l-102.654-126.965L5136.294-622.49l-205.305-162.584l-159.681-162.584l-273.738-99.233l-267.746-113.924  l187.906-133.218l-340.77,87.753l-172.49-179.648l422.014-49.482l34.217-190.86l-536.071,28.275l-387.84-120.185l-262.288-106.019  l456.23-35.344l285.144,7.068 M6105.783-1645.82l-353.58,97.308l79.908,141.376l273.672,14.138l228.184,84.827 M6071.566-1838.337  l-296.998,106.586l-284.673,56.274l-102.677,282.755l-245.223-31.478l74.137-96.038l-376.39-77.758l-205.304-247.41h364.985  l216.708,155.239 M5592.522-1845.129l70.508-171.848 M6482.173-1965.59l114.058,141.667l-250.014,77.757l-274.65-92.171   M6105.783-1392.998l202.654-108.228l287.793-130.181 M5695.176-78.187l136.87-6.793l34.216-176.997l239.521-98.965h307.956  l-79.841,169.653l-228.115,56.551l307.956,120.171 M4086.963,6.64L3744.79-113.531l-307.956-155.516v254.48 M3174.502-474.68  l216.709,35.98l171.087-21.565l182.492,92.254l336.659-51.098l-74.326,128.856l198.074,41.447l18.636,106.999l262.331,91.896   M3174.502-860.264l615.777-101.118l-148.118,105.611l262.31,176.729l-250.903,77.757l-216.733-155.516l-34.217,162.585   M3174.502-1245.835l540.682,128.668l-278.35,84.682 M4634.439-1845.405l-182.492,85.103l-91.246,134.032l-114.058-148.446  l-330.768-77.758l-91.246,254.479l79.841,212.066l-433.418,106.31l22.811-268.893l-57.073-169.667l193.942-141.363   M4999.425-1845.405l-159.682,247.41l-102.652,56.551l-410.606,106.034l91.246,141.377l285.145-7.069l296.55,98.979l142.571-222.076  l186.702,163.951l-44.13,178.282l-513.26,134.309l-34.218-233.273l-239.521,134.04l-258.222,54.003l-9.524-167.927l-152.863-45.465  l-50.647,215.946l232.349,185.689l317.791,66.574l354.536-47.003l148.274-113.102l136.869,120.17l171.086-6.793l193.899-205.272  l68.435,190.858l188.195-196.588L6003.132-869.9L5900.48-721.455l273.736,42.414l125.463-219.135l136.871,176.721l-23.258,247.41  l-387.351-49.482l-159.681,98.964l-239.52-14.138l-136.869-219.134l-68.436,183.79L5136.294-622.49l-23.259,120.17l-216.263-49.481  l-297.051-21.207l-183.929-127.937l-244.824,60.093L4324.69-470.13l326.579,35.44l268.314,52.541l432.384,70.689l126.497,70.688  L5307.38-99.394l-193.898-120.177l-216.709-63.89l-319.361,14.414l91.246,148.722l193.897,84.826l216.709-28.275 M6596.23-2016.978  l-114.058,51.388l-135.956,219.424l-240.434,100.346l-34.217-192.517l-479.044-6.792l182.046,113.378l-22.365,183.239  l-262.308-126.964l-273.763-14.69v169.929l171.086,127.516l229.297,132.473l215.596-146.887l-34.284,226.205l376.39,7.069  l159.75-134.309l262.264,62.336 M6105.783-1645.82l202.654,144.594 M6346.217-1746.166l250.014,114.759 M3436.834-16.611  l-186.869-49.426l-75.463,169.715 M3086.252-204.433l88.25-265.697l148.587,170.495 M3389.552-438.976l-66.463,139.34  l113.701,30.864L3249.965-66.037 M6596.23,103.678l75.476-169.715l-257.967,51.47l94.254-189.866l-174.095,12.992 M6744.817-299.635  l-148.574-174.409l-88.25,269.611l-91.402-156.509 M6744.817-299.635l-236.824,95.202l163.713,138.396L6744.817-299.635z   M3323.089-299.635l-236.837,95.202l163.713,138.396L3323.089-299.635z M4326.484-1435.411l-361.221-28.828 M3720.674-1947.793  l195.202,95.318l95.914,85.233 M4107.703-2016.978l184.107,107.11l196.448-52.506 M6105.783-1392.998l-57.475,147.163   M5797.827-1180.931l250.481-64.904l125.908,71.973v198.204 M6003.132-869.9l171.085-105.758l125.463,77.482 M4930.989-785.074  l-113.155,148.17 M4599.722-573.008l218.112-63.896l78.938,85.103 M4324.69-470.13l37.336,130.947 M4577.411-269.047  l-215.385-70.136l-156.829,90.377 M4063.694-78.463l-318.904-35.068l262.333-76.412 M3539.04-135.015l-102.25-133.756  l301.841,34.786 M4086.963,6.64l-23.269-85.103l160.139-63.344l-216.71-48.136v-100.31l-268.492,56.268l6.159,120.454  l-205.75-21.484L3436.834-14.567 M3715.184-1117.167l189.287-129.152 M4076.961-1206.28l-172.49-40.038v-139.61l60.793-78.31  l-140.634-133.757l187.16-169.246l234.854-7.476l45.167-135.15 M5141.996-1424.2l-302.266,16.788 M4702.875-1301.103l136.855-106.31  l-102.64-134.032 M4634.439-1845.405l205.291,70.696 M4839.743-1597.995l-0.013-176.714l159.694-70.696 M5328.698-1823.923  l263.824-21.207l256.63-43.928 M6071.566-1838.337l-222.414-50.721v-101.736 M5216.133-1690.167l112.565-133.756l-161.464-79.553"/>
<path fill="none" stroke="#E30613" stroke-width="0.3" stroke-miterlimit="10" d="M3774.096-1510.294l758.912,193.05   M6133.522-2273.968l427.214-44.385 M6985.91-2134.765l-425.174-183.588l-45.85-192.261 M7235.285-1995.562l337.273-139.203   M8588.09-3105.966l18.777,247.345l56.234,222.726 M7999.773-2037.322l-427.215-97.442l-44.969-250.565l493.789-271.446   M9078.172-2454.933l-415.07-180.963l-348.539,83.521l-293.184-104.402l45.848-285.367 M8854.201-3290.151l-266.111,184.186  l-318.498-128.504 M8606.867-3833.044l-493.77,124.29 M7943.559-3482.398l169.539-226.356l-248.234-138.21 M6853.041-3652.08  l-465.95,209.348l61.221,152.581 M5301.58-3583.008l91.717,209.607 M4424.667-3149.888l405.937,43.922l562.693-267.436  l447.92-14.193l545.874-55.137 M4132.362-2858.621l292.305-291.267l-52.106-321.745 M4132.362-4250.653l-408.198,247.493   M3759.209-3721.396l-35.045-281.764l-446.229-38.146 M3974.967-4668.264l682.719-159.812l149.226-188.197 M5773.763-4556.901  h-594.008 M4964.305-4348.096l215.45-208.805l-147.995-167.044l-374.074-104.131 M6526.13-4705.675l-550.002,37.412l396.517-255.351   M6718.129-4515.14l-191.999-190.536l191.999-144.097l-345.484-73.842l-81.727-231.86 M8842.98-5142.099l-438.479,0.544  l-185.5,189.284 M8471.957-4762.443l-252.955-189.828l-399.988,20.609 M9213.961-5392.148l-370.98,250.049l102.961,182.051   M6560.736-2747.259l448.818,69.058 M7122.859-2454.933l-113.305-223.269l248.215-138.659 M6290.918-3888.699l45.848,208.234   M6853.041-3652.08l-516.275-28.384l-495.549,292.87l-475.873,237.707 M7437.648-3471.115l-403.828,194.286 M7055.406-3066.884  l-21.586-209.945l-585.509-13.322 M5457.086-2974.864l-91.742-175.023l-534.74,43.922 M4657.708-4585.286l-682.741-82.978  l-336.373-208.288 M3592.723-5183.316l45.871,306.764l-428.201-28.385 M3322.904-4570.821l337.229,320.167 M3277.935-4041.306  l382.198-209.347h472.229l340.04,42.847 M5031.76-4723.945l-374.052,138.659l306.597,237.19 M4472.402-3896.883v-310.923  l491.902-140.29l562.563-6.307 M5706.308-4083.61l-179.44-270.793l246.896-202.498 M7507.43-4003.16l-47.297-294.475  l-404.727,33.604 M8315.461-4477.702l-540.539-93.119l-314.789,273.186 M8471.957-4762.443l-156.496,284.741l156.496,213.128   M2936.928-2732.796l-243.602,276.613l-57.99-472.041l57.99-287.27l222.016,199.426l295.138,4.322L2936.928-2732.796l206.098,41.219   M9380.818-2928.224l58.014,473.291"/>
</svg>