<svg id="Calque_1" data-name="Calque 1" xmlns="http://www.w3.org/2000/svg" viewBox="0 0 510 360.61"><defs><style>.cls-1{fill:#45484b;}</style></defs><title>logo_nancy_votre_place_blanc_gris</title><path class="cls-1" d="M316.72,199.48l3-20.65h3.66l-3.91,25.31h-5.93l-3.9-25.31h4Z"/><path class="cls-1" d="M324.89,184.91c0-4,2.13-6.37,6-6.37s6,2.32,6,6.37v13.16c0,4.05-2.14,6.36-6,6.36s-6-2.31-6-6.36Zm4,13.41c0,1.81.79,2.5,2.06,2.5s2.06-.69,2.06-2.5V184.65c0-1.81-.8-2.49-2.06-2.49s-2.06.68-2.06,2.49Z"/><path class="cls-1" d="M338.38,178.83h12.29v3.62h-4.16v21.69h-4V182.45h-4.15Z"/><path class="cls-1" d="M360.72,204.14a7.9,7.9,0,0,1-.36-3.11v-4c0-2.35-.79-3.22-2.6-3.22h-1.38v10.3h-4V178.83h6c4.12,0,5.89,1.92,5.89,5.82v2c0,2.61-.83,4.31-2.6,5.14,2,.83,2.64,2.75,2.64,5.39v3.9a7.4,7.4,0,0,0,.43,3.07Zm-4.34-21.69v7.77h1.56c1.48,0,2.38-.65,2.38-2.67v-2.5c0-1.81-.61-2.6-2-2.6Z"/><path class="cls-1" d="M370.92,189.5h5.46v3.61h-5.46v7.42h6.87v3.61H366.94V178.83h10.85v3.62h-6.87Z"/><path class="cls-1" d="M323.24,218.15v3.29c0,4.05-1.95,6.25-5.93,6.25h-1.88v9.51h-4V211.89h5.85C321.29,211.89,323.24,214.1,323.24,218.15Zm-7.81-2.64v8.57h1.88c1.27,0,2-.58,2-2.39v-3.8c0-1.8-.69-2.38-2-2.38Z"/><path class="cls-1" d="M325.27,211.89h4v21.7h6.54v3.61H325.27Z"/><path class="cls-1" d="M350.4,237.2h-4l-.69-4.59h-4.88l-.69,4.59h-3.65l4-25.31h5.82Zm-9.08-8h3.84l-1.92-12.81Z"/><path class="cls-1" d="M363.78,227.77v3.36c0,4.05-2,6.36-5.93,6.36s-5.93-2.31-5.93-6.36V218c0-4.05,2-6.37,5.93-6.37s5.93,2.32,5.93,6.37v2.45H360v-2.71c0-1.81-.8-2.49-2.06-2.49s-2.07.68-2.07,2.49v13.67c0,1.81.8,2.46,2.07,2.46s2.06-.65,2.06-2.46v-3.61Z"/><path class="cls-1" d="M370.18,222.56h5.46v3.61h-5.46v7.42h6.87v3.61H366.2V211.89h10.85v3.62h-6.87Z"/><path class="cls-1" d="M313,255.62h5.46v3.61H313v7.42h6.87v3.61H309V245h10.85v3.62H313Z"/><path class="cls-1" d="M327.64,244.66c3.87,0,5.86,2.31,5.86,6.37v.79h-3.77v-1c0-1.81-.72-2.49-2-2.49s-2,.68-2,2.49c0,5.21,7.77,6.19,7.77,13.42,0,4.05-2,6.36-5.93,6.36s-5.93-2.31-5.93-6.36v-1.56h3.76v1.81c0,1.81.8,2.46,2.06,2.46s2.06-.65,2.06-2.46c0-5.21-7.77-6.18-7.77-13.41C321.78,247,323.77,244.66,327.64,244.66Z"/><path class="cls-1" d="M334.65,245H347v3.62h-4.16v21.69h-4V248.57h-4.16Z"/><path class="cls-1" d="M354.29,245h4v25.31h-4Z"/><path class="cls-1" d="M372.69,260.83v3.36c0,4.05-2,6.36-5.93,6.36s-5.93-2.31-5.93-6.36V251c0-4.06,2-6.37,5.93-6.37s5.93,2.31,5.93,6.37v2.45h-3.76v-2.71c0-1.81-.8-2.49-2.06-2.49s-2.06.68-2.06,2.49v13.67c0,1.81.79,2.46,2.06,2.46s2.06-.65,2.06-2.46v-3.61Z"/><path class="cls-1" d="M375.11,245h4v25.31h-4Z"/><path class="cls-1" d="M195.68,156.45a13.29,13.29,0,0,0,2.69,0,4.11,4.11,0,0,0,3-5.38c-.82-2.55-1.76-5.07-2.69-7.58A.93.93,0,0,0,198,143c-4.56,0-9.12,0-13.68,0-.58,0-.65.36-.79.74q-2.82,7.77-5.64,15.53c-1.14,3.14-4.22,3.85-6.58,1.5-1.49-1.48-2.93-3-4.4-4.53a9.44,9.44,0,0,0,1,.27,4.14,4.14,0,0,0,4.76-2.94c1.21-3.25,2.37-6.52,3.55-9.78Q182,127.9,187.69,112a3.55,3.55,0,0,1,6.82,0q7.77,21.51,15.52,43a5,5,0,0,1-1.59,6,5,5,0,0,1-6.19,0C200.07,159.57,197.92,158,195.68,156.45Zm-4.59-33.91c-1.69,4.69-3.28,9.13-4.89,13.61H196Z"/><path class="cls-1" d="M327.84,132.56c3.28-5.65,6.51-11.19,9.73-16.74.89-1.54,1.76-3.09,2.69-4.61a3.3,3.3,0,0,1,3.63-1.67,3.19,3.19,0,0,1,2.64,2.79,5,5,0,0,1-.61,2.48c-4.71,8.22-9.49,16.41-14.21,24.63a3.35,3.35,0,0,0-.44,1.63c0,5.76,0,11.51,0,17.27a3.51,3.51,0,0,1-1.72,3.32,3.13,3.13,0,0,1-3.76-.26c-2-1.94-3.92-4-5.88-6a10,10,0,0,0,1.27-.14,4,4,0,0,0,3.2-3.81c.09-3.65.05-7.31,0-11a1.79,1.79,0,0,0-.3-.8l-14.2-24.53a4.17,4.17,0,0,1-.84-2.7,3.36,3.36,0,0,1,2.46-2.88,3.22,3.22,0,0,1,3.57,1.25c1.1,1.69,2.08,3.45,3.09,5.18l9.38,16.11C327.63,132.24,327.71,132.36,327.84,132.56Z"/><path class="cls-1" d="M133.73,122.37v.95q0,17.22,0,34.46c0,2.11-.88,3.38-2.61,3.84a2.78,2.78,0,0,1-2.72-.56c-2.05-2-4-4.08-6-6.12.3,0,.67,0,1-.1A4.24,4.24,0,0,0,127,150.9c0-.34,0-.7,0-1.05V112.77c0-2.06,1-3.43,2.85-3.73a3.45,3.45,0,0,1,3.4,1.54c2.09,2.63,4.2,5.24,6.31,7.86,2.36,2.94,4.73,5.87,7.07,8.82a1.73,1.73,0,0,1,.41,1c0,3.24,0,6.48,0,9.73,0,.11,0,.22-.07.56L133.91,122.3Z"/><path class="cls-1" d="M134.93,124.53l12.87,16.12.2,0v-.87c0-6.63,0-13.27,0-19.9a4.37,4.37,0,0,1,1.38-3.36c1.68-1.62,3.31-3.29,5-4.94.18-.19.38-.35.5-.47V113q0,18.54,0,37.07a3.65,3.65,0,0,1-2,3.61,3.28,3.28,0,0,1-4.14-1c-2-2.49-4-5-6-7.51-2.5-3.13-5-6.25-7.49-9.38a1.71,1.71,0,0,1-.43-.91c0-3.39,0-6.77,0-10.16Z"/><path class="cls-1" d="M278,109.94c-1.32.86-2.62,1.58-3.77,2.48-5,3.91-8.14,8.94-8.31,15.42-.16,5.82,1.19,11.2,5.6,15.39a17.57,17.57,0,0,0,9.92,4.6,17.26,17.26,0,0,0,9.22-.83c.72-.3,1.42-.66,2.13-1a3.4,3.4,0,1,1,3.19,6,24.23,24.23,0,0,1-30-4.9A22,22,0,0,1,264,120.89a26.39,26.39,0,0,1,13.57-10.82C277.69,110,277.83,110,278,109.94Z"/><path class="cls-1" d="M151.23,155.4c2.72-.29,4.07-1.23,4.56-3.22a7.34,7.34,0,0,0,.14-1.82q0-18.5,0-37c0-2.05.95-3.42,2.64-3.84a3.4,3.4,0,0,1,4.16,2.85c0,.32,0,.64,0,1q0,22.44,0,44.88a3.59,3.59,0,0,1-2.15,3.67,3.17,3.17,0,0,1-3.64-.72C155.05,159.32,153.2,157.38,151.23,155.4Z"/><path class="cls-1" d="M281.93,146.89a15.94,15.94,0,0,1-11.38-6.48,19.44,19.44,0,0,1-3.31-10.27,18.5,18.5,0,0,1,4.24-13.43A20.91,20.91,0,0,1,285,109,23.06,23.06,0,0,1,300.21,112a3.41,3.41,0,0,1,1.41,4.67A3.26,3.26,0,0,1,297,118a18.53,18.53,0,0,0-9.83-2.34,15.74,15.74,0,0,0-14.52,13.26,16.8,16.8,0,0,0,8.83,17.74C281.65,146.71,281.79,146.8,281.93,146.89Z"/><path class="cls-1" d="M308.1,111.65a5,5,0,0,0,.65,4.08q7.13,12.15,14.15,24.36a2.53,2.53,0,0,1,.35,1.13c0,3.3,0,6.6,0,9.9a3.37,3.37,0,0,1-2.9,3.59,3.27,3.27,0,0,1-3.85-3c-.11-2.74,0-5.49-.09-8.23a3.68,3.68,0,0,0-.46-1.72q-6.12-10.65-12.31-21.27c-1.24-2.13-1.09-3.34.62-5.08l3.56-3.63A2.6,2.6,0,0,1,308.1,111.65Z"/><path class="cls-1" d="M187.32,111.19l-3.06,8.54q-5.92,16.45-11.83,32.91c-.69,1.93-2,2.82-3.81,2.63a3.33,3.33,0,0,1-2.71-4.55c1.94-5.47,3.91-10.92,5.86-16.38,1.56-4.34,3.1-8.68,4.7-13a5.51,5.51,0,0,1,1.31-2.22c3.08-2.73,6.25-5.36,9.39-8Z"/><path class="cls-1" d="M125.72,111.66v39.06c0,2.17-1.26,3.63-3.2,3.75a3.29,3.29,0,0,1-3.48-2.78,9.32,9.32,0,0,1-.09-1.4c0-9.9,0-19.8,0-29.7a5,5,0,0,1,1.64-3.88C122.34,115.06,124,113.33,125.72,111.66Z"/><path class="cls-1" d="M227.44,122.37v.95q0,17.22,0,34.46c0,2.11-.88,3.38-2.61,3.84a2.78,2.78,0,0,1-2.72-.56c-2-2-4-4.08-6-6.12.3,0,.67,0,1-.1a4.24,4.24,0,0,0,3.51-3.94c0-.34,0-.7,0-1.05V112.77c0-2.06,1-3.43,2.85-3.73a3.45,3.45,0,0,1,3.4,1.54c2.09,2.63,4.2,5.24,6.31,7.86,2.36,2.94,4.73,5.87,7.07,8.82a1.73,1.73,0,0,1,.41,1c0,3.24,0,6.48,0,9.73,0,.11,0,.22-.07.56L227.61,122.3Z"/><path class="cls-1" d="M228.63,124.53l12.87,16.12.2,0v-.87c0-6.63,0-13.27,0-19.9a4.33,4.33,0,0,1,1.37-3.36c1.68-1.62,3.32-3.29,5-4.94.18-.19.38-.35.51-.47V113q0,18.54,0,37.07a3.63,3.63,0,0,1-2,3.61,3.28,3.28,0,0,1-4.14-1c-2-2.49-4-5-6-7.51q-3.75-4.69-7.49-9.38a1.71,1.71,0,0,1-.43-.91c0-3.39,0-6.77,0-10.16Z"/><path class="cls-1" d="M244.93,155.4c2.72-.29,4.07-1.23,4.56-3.22a7.34,7.34,0,0,0,.14-1.82q0-18.5,0-37c0-2.05,1-3.42,2.64-3.84a3.4,3.4,0,0,1,4.16,2.85,7.71,7.71,0,0,1,0,1q0,22.44,0,44.88a3.58,3.58,0,0,1-2.15,3.67,3.17,3.17,0,0,1-3.64-.72C248.75,159.32,246.9,157.38,244.93,155.4Z"/><path class="cls-1" d="M219.42,111.66v39.06c0,2.17-1.26,3.63-3.2,3.75a3.29,3.29,0,0,1-3.48-2.78,9.32,9.32,0,0,1-.08-1.4c0-9.9,0-19.8,0-29.7a4.91,4.91,0,0,1,1.63-3.88C216,115.06,217.73,113.33,219.42,111.66Z"/><path class="cls-1" d="M219.37,111.7v39c0,2.18-1.26,3.64-3.21,3.75a3.3,3.3,0,0,1-3.46-2.7,8.17,8.17,0,0,1-.1-1.4q0-14.94,0-29.88a4.65,4.65,0,0,1,1.51-3.66c1.62-1.52,3.17-3.11,4.76-4.67Z"/><path class="cls-1" d="M299.21,148.74a54.77,54.77,0,0,1,4,3.79,3.36,3.36,0,0,1-.94,4.84,26.69,26.69,0,0,1-24.94,3,26.56,26.56,0,0,1-15.79-16.55,25.9,25.9,0,0,1-1.34-9,24.58,24.58,0,0,0,2.3,7.88A23.41,23.41,0,0,0,276,154.53a24.6,24.6,0,0,0,18.76-.68,17.79,17.79,0,0,0,2.25-1.17A4.34,4.34,0,0,0,299.21,148.74Z"/><path class="cls-1" d="M298.43,119.89c-1.16,1.21-2.41,2.59-3.76,3.88a3.09,3.09,0,0,1-3.43.56,13.25,13.25,0,0,0-9.75-.17,12.15,12.15,0,0,0-8.14,10.18c0,.19-.08.38-.14.66a13,13,0,0,1-.15-5.58,14.87,14.87,0,0,1,11.48-12.27,15.77,15.77,0,0,1,11.1,1.68A24.71,24.71,0,0,0,298.43,119.89Z"/><path class="cls-1" d="M181.67,150.58c.81-2.21,1.57-4.31,2.37-6.4a.8.8,0,0,1,.61-.32q6.27,0,12.53,0a.89.89,0,0,1,.65.48c.89,2.31,1.76,4.63,2.57,7a3.36,3.36,0,0,1-6.15,2.64,15.13,15.13,0,0,1-1-2.51,1.06,1.06,0,0,0-1.22-.89c-3.1.05-6.19,0-9.29,0Z"/><path class="cls-1" d="M327.7,130.74c-1.29-2.23-2.53-4.34-3.73-6.47a.83.83,0,0,1,.07-.7c.94-1.67,1.88-3.35,2.89-5a4.17,4.17,0,0,1,1.21-1.23c3.77-2.5,7.55-5,11.33-7.43.11-.07.24-.12.53-.27C335.86,116.76,331.82,123.68,327.7,130.74Z"/><path class="cls-1" d="M190.46,135.3h4.38c-1.24-3.41-2.46-6.76-3.75-10.33-.73,2-1.43,4-2.12,6Z"/><path class="cls-1" d="M133.34,122.77v35.4c0,2.12-.89,3.39-2.62,3.85a2.78,2.78,0,0,1-2.72-.57c-2-2-4-4.07-6-6.12a8.11,8.11,0,0,0,1-.1,4.23,4.23,0,0,0,3.51-3.93c0-.35,0-.7,0-1.05q0-18.54,0-37.09c0-2.06,1-3.42,2.85-3.72a3.42,3.42,0,0,1,3.39,1.54c2.09,2.63,4.21,5.24,6.31,7.86,2.36,2.93,4.73,5.86,7.08,8.81a2,2,0,0,1,.41,1c0,3.25,0,6.49,0,9.73,0,.12,0,.23-.07.57l-13-16.25Z"/><path class="cls-1" d="M150.33,155.4c2.72-.29,4.07-1.23,4.56-3.22a7.34,7.34,0,0,0,.15-1.82v-37c0-2.05,1-3.42,2.65-3.84a3.39,3.39,0,0,1,4.15,2.85,7.71,7.71,0,0,1,0,1q0,22.44,0,44.88a3.58,3.58,0,0,1-2.15,3.67,3.17,3.17,0,0,1-3.64-.72C154.16,159.32,152.3,157.38,150.33,155.4Z"/><path class="cls-1" d="M227,122.47v1.27q0,17.1,0,34.19a7.07,7.07,0,0,1-.13,1.66,3.31,3.31,0,0,1-5.49,1.63c-2-1.86-3.84-3.84-5.82-5.84a6.07,6.07,0,0,1,.66-.09,4.24,4.24,0,0,0,4-4c0-.35,0-.7,0-1.05q0-18.51,0-37c0-2.1,1-3.44,2.78-3.78a3.15,3.15,0,0,1,3.18,1.22c2.24,2.74,4.45,5.5,6.66,8.25q3.52,4.36,7,8.75a1.73,1.73,0,0,1,.4.92c0,3.3,0,6.6,0,9.9a2.07,2.07,0,0,1-.11.4Z"/><path class="cls-1" d="M244,155.39c.63-.1,1.14-.14,1.64-.26a4,4,0,0,0,3-3.64c0-.44,0-.88,0-1.32V113.36c0-2.1,1-3.47,2.71-3.88a3.41,3.41,0,0,1,4.09,2.84,3.25,3.25,0,0,1,0,.44q0,23,0,46a3.22,3.22,0,0,1-2.17,3.1,3.28,3.28,0,0,1-3.71-.84C247.74,159.22,245.91,157.33,244,155.39Z"/><path class="cls-1" d="M281.53,147.28a15.89,15.89,0,0,1-11.38-6.48,19.51,19.51,0,0,1-3.3-10.26,18.46,18.46,0,0,1,4.24-13.43,20.92,20.92,0,0,1,13.49-7.75,23,23,0,0,1,15.23,3.07,3.4,3.4,0,0,1,1.42,4.66,3.28,3.28,0,0,1-4.61,1.28,18.63,18.63,0,0,0-9.83-2.35,15.76,15.76,0,0,0-14.52,13.27A16.83,16.83,0,0,0,281.1,147Z"/><path class="cls-1" d="M308.46,111.39a5,5,0,0,0,.66,4.08q7.11,12.15,14.14,24.35a2.61,2.61,0,0,1,.35,1.14c0,3.3,0,6.6,0,9.9a3.37,3.37,0,0,1-2.9,3.59,3.27,3.27,0,0,1-3.85-3c-.11-2.74,0-5.49-.09-8.23a3.68,3.68,0,0,0-.46-1.72q-6.12-10.65-12.31-21.27c-1.24-2.13-1.08-3.34.62-5.08l3.56-3.63A2.6,2.6,0,0,1,308.46,111.39Z"/><path class="cls-1" d="M186.92,111.58l-3.06,8.54L172,153c-.69,1.93-2,2.83-3.81,2.63a3.33,3.33,0,0,1-2.71-4.55c1.94-5.46,3.91-10.92,5.87-16.38,1.55-4.33,3.09-8.67,4.69-13a5.58,5.58,0,0,1,1.31-2.21c3.09-2.73,6.26-5.36,9.4-8Z"/><path class="cls-1" d="M298.82,149.13c1.33,1.26,2.76,2.43,4,3.8a3.34,3.34,0,0,1-.93,4.83,25.68,25.68,0,0,1-11.45,4.51,26,26,0,0,1-13.5-1.55,26.5,26.5,0,0,1-15.78-16.54,25.91,25.91,0,0,1-1.35-9,24.65,24.65,0,0,0,2.3,7.88,23.47,23.47,0,0,0,13.51,11.91,24.53,24.53,0,0,0,18.75-.69,17.08,17.08,0,0,0,2.25-1.16A4.36,4.36,0,0,0,298.82,149.13Z"/><path class="cls-1" d="M181.84,150.58c.82-2.21,1.58-4.31,2.38-6.4a.79.79,0,0,1,.61-.32q6.25,0,12.52,0a.88.88,0,0,1,.66.48c.88,2.31,1.76,4.63,2.56,7a3.36,3.36,0,0,1-6.15,2.64,15.09,15.09,0,0,1-1-2.51,1.07,1.07,0,0,0-1.23-.89c-3.09.05-6.19,0-9.28,0Z"/><path class="cls-1" d="M327.83,130.87c-1.3-2.24-2.54-4.35-3.74-6.48a.85.85,0,0,1,.08-.69c.94-1.68,1.88-3.35,2.89-5a4.06,4.06,0,0,1,1.21-1.23c3.76-2.5,7.55-5,11.33-7.44a5.21,5.21,0,0,1,.53-.26Z"/><path class="cls-1" d="M194.84,135.3h-7.43L191.09,125C192.38,128.54,193.6,131.89,194.84,135.3Z"/><path class="cls-1" d="M376.62,150.72V66.05H92.5V209.14H270v85.41H417.5V150.72ZM407.5,284.55H280v-106H270v20.6H102.5V76.05H366.62v74.67h-22.1v10h63Z"/></svg>